HIERARCHY
ROOT Hips
{
	OFFSET 0.000000 100.481300 0.000000
	CHANNELS 6 Xposition Yposition Zposition Xrotation Yrotation Zrotation
	JOINT Spine
	{
		OFFSET -0.279200 12.230698 -2.892100
		CHANNELS 3 Xrotation Yrotation Zrotation
		JOINT Spine1
		{
			OFFSET -0.325700 14.269203 -3.374200
			CHANNELS 3 Xrotation Yrotation Zrotation
			JOINT Spine2
			{
				OFFSET -0.372300 16.307602 -0.352600
				CHANNELS 3 Xrotation Yrotation Zrotation
				JOINT Neck
				{
					OFFSET -0.418800 17.814194 8.416900
					CHANNELS 3 Xrotation Yrotation Zrotation
					JOINT Head
					{
						OFFSET 0.000000 7.031097 3.806800
						CHANNELS 3 Xrotation Yrotation Zrotation
						JOINT HeadTop_End
						{
							OFFSET 0.000000 24.646606 12.978600
							CHANNELS 3 Xrotation Yrotation Zrotation
							End Site
							{
								OFFSET 0.000000 27.854965 0.000000
							}
						}
					}
				}
				JOINT LeftShoulder
				{
					OFFSET 16.952999 14.495407 -7.737500
					CHANNELS 3 Xrotation Yrotation Zrotation
					JOINT LeftArm
					{
						OFFSET 9.308998 -2.777710 0.208600
						CHANNELS 3 Xrotation Yrotation Zrotation
						JOINT LeftForeArm
						{
							OFFSET 29.972298 0.000000 0.000000
							CHANNELS 3 Xrotation Yrotation Zrotation
							JOINT LeftHand
							{
								OFFSET 26.026505 0.000000 0.000000
								CHANNELS 3 Xrotation Yrotation Zrotation
								JOINT LeftHandThumb1
								{
									OFFSET 12.240501 -7.147949 9.207150
									CHANNELS 3 Xrotation Yrotation Zrotation
									JOINT LeftHandThumb2
									{
										OFFSET 4.138618 -2.389435 2.389433
										CHANNELS 3 Xrotation Yrotation Zrotation
										JOINT LeftHandThumb3
										{
											OFFSET 2.726913 -1.574387 1.574386
											CHANNELS 3 Xrotation Yrotation Zrotation
											JOINT LeftHandThumb4
											{
												OFFSET 3.941010 -2.275345 2.275342
												CHANNELS 3 Xrotation Yrotation Zrotation
												End Site
												{
													OFFSET -0.005798 5.087799 0.009903
												}
											}
										}
									}
								}
								JOINT LeftHandIndex1
								{
									OFFSET 24.424698 -1.985611 5.953459
									CHANNELS 3 Xrotation Yrotation Zrotation
									JOINT LeftHandIndex2
									{
										OFFSET 6.426697 0.000000 0.000000
										CHANNELS 3 Xrotation Yrotation Zrotation
										JOINT LeftHandIndex3
										{
											OFFSET 5.337898 0.000000 0.000000
											CHANNELS 3 Xrotation Yrotation Zrotation
											JOINT LeftHandIndex4
											{
												OFFSET 4.409401 0.000000 0.000000
												CHANNELS 3 Xrotation Yrotation Zrotation
												End Site
												{
													OFFSET 0.000000 4.409363 0.014373
												}
											}
										}
									}
								}
								JOINT LeftHandMiddle1
								{
									OFFSET 23.810104 0.000000 0.000000
									CHANNELS 3 Xrotation Yrotation Zrotation
									JOINT LeftHandMiddle2
									{
										OFFSET 7.176498 0.000000 0.000000
										CHANNELS 3 Xrotation Yrotation Zrotation
										JOINT LeftHandMiddle3
										{
											OFFSET 6.774902 0.000000 0.000000
											CHANNELS 3 Xrotation Yrotation Zrotation
											JOINT LeftHandMiddle4
											{
												OFFSET 5.403328 0.000000 0.000000
												CHANNELS 3 Xrotation Yrotation Zrotation
												End Site
												{
													OFFSET -0.027702 5.403244 0.017414
												}
											}
										}
									}
								}
								JOINT LeftHandRing1
								{
									OFFSET 22.908401 -0.839279 -6.020567
									CHANNELS 3 Xrotation Yrotation Zrotation
									JOINT LeftHandRing2
									{
										OFFSET 6.337502 0.000000 0.000000
										CHANNELS 3 Xrotation Yrotation Zrotation
										JOINT LeftHandRing3
										{
											OFFSET 5.779297 0.000000 0.000000
											CHANNELS 3 Xrotation Yrotation Zrotation
											JOINT LeftHandRing4
											{
												OFFSET 4.965698 0.000000 0.000000
												CHANNELS 3 Xrotation Yrotation Zrotation
												End Site
												{
													OFFSET 0.000000 4.965668 0.016186
												}
											}
										}
									}
								}
								JOINT LeftHandPinky1
								{
									OFFSET 20.037003 -1.530319 -10.950146
									CHANNELS 3 Xrotation Yrotation Zrotation
									JOINT LeftHandPinky2
									{
										OFFSET 5.254700 0.000000 0.000000
										CHANNELS 3 Xrotation Yrotation Zrotation
										JOINT LeftHandPinky3
										{
											OFFSET 4.810204 0.000000 0.000000
											CHANNELS 3 Xrotation Yrotation Zrotation
											JOINT LeftHandPinky4
											{
												OFFSET 3.647202 0.000000 0.000000
												CHANNELS 3 Xrotation Yrotation Zrotation
												End Site
												{
													OFFSET 0.000000 3.647186 0.011889
												}
											}
										}
									}
								}
							}
						}
					}
				}
				JOINT RightShoulder
				{
					OFFSET -15.141001 14.495407 -7.737500
					CHANNELS 3 Xrotation Yrotation Zrotation
					JOINT RightArm
					{
						OFFSET -9.308998 -2.777710 0.208500
						CHANNELS 3 Xrotation Yrotation Zrotation
						JOINT RightForeArm
						{
							OFFSET -29.972300 0.000000 0.000000
							CHANNELS 3 Xrotation Yrotation Zrotation
							JOINT RightHand
							{
								OFFSET -26.026505 0.000000 0.000000
								CHANNELS 3 Xrotation Yrotation Zrotation
								JOINT RightHandThumb1
								{
									OFFSET -12.240601 -7.148026 9.207092
									CHANNELS 3 Xrotation Yrotation Zrotation
									JOINT RightHandThumb2
									{
										OFFSET -4.138618 -2.389435 2.389433
										CHANNELS 3 Xrotation Yrotation Zrotation
										JOINT RightHandThumb3
										{
											OFFSET -2.726974 -1.574417 1.574421
											CHANNELS 3 Xrotation Yrotation Zrotation
											JOINT RightHandThumb4
											{
												OFFSET -3.941010 -2.275345 2.275343
												CHANNELS 3 Xrotation Yrotation Zrotation
												End Site
												{
													OFFSET 0.005814 5.087799 0.009927
												}
											}
										}
									}
								}
								JOINT RightHandIndex1
								{
									OFFSET -24.424698 -1.985657 5.953444
									CHANNELS 3 Xrotation Yrotation Zrotation
									JOINT RightHandIndex2
									{
										OFFSET -6.426697 0.000000 0.000000
										CHANNELS 3 Xrotation Yrotation Zrotation
										JOINT RightHandIndex3
										{
											OFFSET -5.337898 0.000000 0.000000
											CHANNELS 3 Xrotation Yrotation Zrotation
											JOINT RightHandIndex4
											{
												OFFSET -4.409401 0.000000 0.000000
												CHANNELS 3 Xrotation Yrotation Zrotation
												End Site
												{
													OFFSET 0.000000 4.409363 0.014408
												}
											}
										}
									}
								}
								JOINT RightHandMiddle1
								{
									OFFSET -23.810097 0.000000 0.000000
									CHANNELS 3 Xrotation Yrotation Zrotation
									JOINT RightHandMiddle2
									{
										OFFSET -7.176498 0.000000 0.000000
										CHANNELS 3 Xrotation Yrotation Zrotation
										JOINT RightHandMiddle3
										{
											OFFSET -6.774902 0.000000 0.000000
											CHANNELS 3 Xrotation Yrotation Zrotation
											JOINT RightHandMiddle4
											{
												OFFSET -5.403328 0.000000 0.000000
												CHANNELS 3 Xrotation Yrotation Zrotation
												End Site
												{
													OFFSET 0.027702 5.403244 0.017457
												}
											}
										}
									}
								}
								JOINT RightHandRing1
								{
									OFFSET -22.908302 -0.839325 -6.020576
									CHANNELS 3 Xrotation Yrotation Zrotation
									JOINT RightHandRing2
									{
										OFFSET -6.337502 0.000000 0.000000
										CHANNELS 3 Xrotation Yrotation Zrotation
										JOINT RightHandRing3
										{
											OFFSET -5.779297 0.000000 0.000000
											CHANNELS 3 Xrotation Yrotation Zrotation
											JOINT RightHandRing4
											{
												OFFSET -4.965698 0.000000 0.000000
												CHANNELS 3 Xrotation Yrotation Zrotation
												End Site
												{
													OFFSET 0.000000 4.965668 0.016226
												}
											}
										}
									}
								}
								JOINT RightHandPinky1
								{
									OFFSET -20.037003 -1.530334 -10.950259
									CHANNELS 3 Xrotation Yrotation Zrotation
									JOINT RightHandPinky2
									{
										OFFSET -5.254700 0.000000 0.000000
										CHANNELS 3 Xrotation Yrotation Zrotation
										JOINT RightHandPinky3
										{
											OFFSET -4.810204 0.000000 0.000000
											CHANNELS 3 Xrotation Yrotation Zrotation
											JOINT RightHandPinky4
											{
												OFFSET -3.647202 0.000000 0.000000
												CHANNELS 3 Xrotation Yrotation Zrotation
												End Site
												{
													OFFSET 0.000000 3.647186 0.011917
												}
											}
										}
									}
								}
							}
						}
					}
				}
			}
		}
	}
	JOINT LeftUpLeg
	{
		OFFSET 15.427100 -6.655098 0.678600
		CHANNELS 3 Xrotation Yrotation Zrotation
		JOINT LeftLeg
		{
			OFFSET 4.081073 -39.591068 13.024000
			CHANNELS 3 Xrotation Yrotation Zrotation
			JOINT LeftFoot
			{
				OFFSET -4.081074 -37.707932 -15.979700
				CHANNELS 3 Xrotation Yrotation Zrotation
				JOINT LeftToeBase
				{
					OFFSET 5.346399 -15.068900 20.645000
					CHANNELS 3 Xrotation Yrotation Zrotation
					JOINT LeftToe_End
					{
						OFFSET 2.754700 0.931300 11.300900
						CHANNELS 3 Xrotation Yrotation Zrotation
						End Site
						{
							OFFSET 0.000000 11.669021 0.000000
						}
					}
				}
			}
		}
	}
	JOINT RightUpLeg
	{
		OFFSET -15.569500 -6.655098 0.678600
		CHANNELS 3 Xrotation Yrotation Zrotation
		JOINT RightLeg
		{
			OFFSET -4.081825 -39.591045 13.023800
			CHANNELS 3 Xrotation Yrotation Zrotation
			JOINT RightFoot
			{
				OFFSET 4.081824 -37.707954 -15.979600
				CHANNELS 3 Xrotation Yrotation Zrotation
				JOINT RightToeBase
				{
					OFFSET -5.346400 -15.068900 20.645000
					CHANNELS 3 Xrotation Yrotation Zrotation
					JOINT RightToe_End
					{
						OFFSET -2.754700 0.931300 11.300900
						CHANNELS 3 Xrotation Yrotation Zrotation
						End Site
						{
							OFFSET 0.000000 11.669021 0.000000
						}
					}
				}
			}
		}
	}
}
MOTION
Frames: 4
Frame Time: 0.033333
1.071529 97.620262 -0.670716 -3.751391 -5.192694 -3.902664 3.293113 1.525324 2.876842 1.151890 0.339456 1.552798 1.126015 0.361543 1.555886 5.626310 -0.078964 0.454682 -7.563344 1.375725 -0.080566 -0.000000 0.000000 0.000000 1.049449 -17.442070 -12.319428 3.916256 -19.989250 -69.765232 -0.000002 -1.459357 -0.000000 -33.230411 -1.364825 -6.186650 -0.663000 2.160313 4.832504 11.853549 25.421612 17.058336 -13.813941 3.537282 9.035994 0.000000 0.000000 0.000001 0.019864 -0.969582 -7.593535 0.267871 1.752891 -17.375725 0.057680 0.820953 -8.038007 -0.000001 -0.000000 -0.000002 -0.076309 2.665776 -15.696823 0.268782 1.755803 -17.405547 0.300527 1.853980 -18.413343 0.000000 0.000001 0.000002 0.136907 3.641772 -21.133539 0.386623 2.094787 -20.911896 0.283043 1.800634 -17.865002 -0.000000 0.000001 -0.000001 0.927724 5.555916 -27.128031 0.268795 1.755839 -17.405897 0.241909 1.667696 -16.505900 0.000000 -0.000000 0.000002 1.203180 15.343658 14.705973 13.158864 27.555119 58.785143 -0.000001 6.693731 0.000012 -20.179089 -0.514089 6.782809 -1.665246 -0.174474 -4.219023 12.710945 -29.825329 -16.130960 -15.549417 -3.559406 -12.707125 -0.000002 -0.000000 -0.000001 0.038554 1.262296 6.823718 0.213725 -1.396031 17.407033 0.046030 -0.653845 8.053225 -0.000001 -0.000000 -0.000002 -0.136225 -2.205106 14.998884 0.214452 -1.398347 17.436896 0.239773 -1.476530 18.446271 0.000000 0.000002 0.000005 0.030609 -3.075763 20.451000 0.308444 -1.668276 20.948532 0.225821 -1.434056 17.897083 0.000001 0.000000 -0.000001 0.748876 -4.885240 26.473767 0.214458 -1.398381 17.437229 0.193009 -1.328178 16.535821 0.000001 -0.000001 0.000002 -10.206312 14.659949 11.519033 12.134290 1.647967 4.070510 0.795978 0.799156 -8.235389 -4.928527 -0.000002 0.000001 0.000000 0.000001 0.000000 3.685229 -10.079715 1.720531 6.593442 -8.483755 -2.382491 -5.338133 -3.058967 4.999707 -7.282873 0.000005 -0.000001 0.000000 0.000002 0.000000 
1.046406 97.601990 -0.588887 -3.733684 -5.177811 -3.890101 3.287251 1.521196 2.882270 1.142057 0.333124 1.559096 1.116160 0.355109 1.562068 5.633606 -0.085938 0.458945 -7.551322 1.339930 -0.077566 -0.000000 0.000000 0.000000 1.050526 -17.448703 -12.313297 3.923725 -19.990912 -69.787963 0.000004 -1.470363 0.000008 -33.255901 -1.352884 -6.193064 -0.665226 2.156103 4.815981 11.859006 25.432296 17.055083 -13.815471 3.533075 9.035657 -0.000000 0.000001 0.000001 0.021224 -0.967786 -7.599400 0.267641 1.752153 -17.368147 0.057573 0.820186 -8.030455 0.000001 -0.000000 0.000003 -0.075062 2.671897 -15.716170 0.268270 1.754159 -17.388629 0.299980 1.852338 -18.396490 0.000000 0.000002 0.000004 0.136501 3.640642 -21.131711 0.386465 2.094374 -20.907542 0.282908 1.800221 -17.860803 -0.000000 -0.000000 -0.000000 0.921289 5.551254 -27.136567 0.268798 1.755847 -17.405979 0.241908 1.667704 -16.505939 0.000000 0.000000 -0.000000 1.206260 15.351344 14.691279 13.136512 27.526912 58.823249 0.000005 6.679510 -0.000001 -20.186721 -0.483338 6.760795 -1.684581 -0.130666 -4.234032 12.683017 -29.773112 -16.137982 -15.548173 -3.562208 -12.708056 -0.000000 -0.000001 -0.000005 0.041784 1.268126 6.766350 0.209953 -1.383959 17.251704 0.044279 -0.641320 7.897964 -0.000001 0.000000 0.000001 -0.141182 -2.185847 14.991748 0.213827 -1.396369 17.411371 0.239113 -1.474558 18.420670 -0.000002 0.000003 0.000003 0.023635 -3.055322 20.413183 0.308040 -1.667200 20.934400 0.225473 -1.432973 17.883112 -0.000000 -0.000001 0.000002 0.742835 -4.877825 26.428674 0.214460 -1.398387 17.437352 0.193013 -1.328190 16.535941 -0.000001 0.000000 0.000003 -10.213899 14.665516 11.530385 12.213143 1.640121 4.077681 0.731839 0.796376 -8.251427 -4.908024 -0.000007 0.000001 -0.000000 -0.000001 -0.000000 3.708611 -10.075874 1.708360 6.645538 -8.522873 -2.381833 -5.426796 -3.064178 5.025998 -7.255520 0.000012 0.000002 -0.000000 -0.000000 -0.000000 
1.022167 97.583397 -0.507671 -3.714994 -5.164322 -3.873755 3.280611 1.518532 2.885209 1.132153 0.329479 1.564845 1.106289 0.351447 1.567722 5.641799 -0.100621 0.474596 -7.487909 1.267012 -0.060223 -0.000000 0.000000 0.000000 1.053474 -17.463778 -12.295816 3.931438 -19.999173 -69.814744 -0.000004 -1.480476 0.000002 -33.277549 -1.333823 -6.231288 -0.653577 2.189211 4.813865 11.877721 25.468932 17.044006 -13.818040 3.526061 9.035077 0.000000 -0.000001 0.000000 0.020787 -0.962807 -7.636106 0.267510 1.751735 -17.363902 0.057516 0.819757 -8.026196 -0.000001 -0.000001 -0.000002 -0.072616 2.681505 -15.726041 0.268439 1.754705 -17.394269 0.300163 1.852886 -18.402102 0.000001 -0.000000 -0.000000 0.136502 3.641312 -21.146894 0.386315 2.093981 -20.903459 0.282784 1.799835 -17.856853 -0.000000 0.000001 -0.000002 0.927074 5.556138 -27.144857 0.268527 1.754985 -17.397132 0.241652 1.666839 -16.497120 -0.000000 0.000001 -0.000001 1.205235 15.354492 14.696455 13.126479 27.513766 58.826357 -0.000002 6.674280 -0.000003 -20.217937 -0.478297 6.782570 -1.742555 -0.004410 -4.250855 12.559657 -29.542207 -16.168987 -15.571585 -3.510363 -12.691184 -0.000000 -0.000000 -0.000004 0.058312 1.251698 6.663467 0.206119 -1.371547 17.092173 0.042508 -0.628458 7.738481 -0.000001 -0.000000 -0.000002 -0.160556 -2.127652 15.144153 0.211700 -1.389564 17.323779 0.236858 -1.467759 18.332764 0.000001 -0.000000 0.000001 0.013884 -3.030641 20.446789 0.307377 -1.665479 20.911657 0.224909 -1.431221 17.860632 -0.000001 0.000000 -0.000001 0.735854 -4.871265 26.477182 0.214684 -1.399100 17.446523 0.193222 -1.328908 16.545068 0.000001 0.000000 0.000003 -10.225354 14.673688 11.543307 12.289854 1.621094 4.077705 0.688860 0.792030 -8.279112 -4.900167 0.000002 -0.000000 -0.000000 -0.000000 -0.000000 3.720212 -10.076893 1.692917 6.714884 -8.545671 -2.374838 -5.514270 -3.057330 5.043611 -7.255244 -0.000001 0.000000 -0.000000 -0.000001 0.000000 
1.000418 97.594666 -0.418022 -3.703226 -5.146269 -3.882134 3.269256 1.516719 2.900452 1.115750 0.327853 1.568568 1.089895 0.349818 1.571378 5.667842 -0.141514 0.530137 -7.258102 1.050211 0.044065 -0.000000 -0.000000 0.000000 1.053065 -17.460426 -12.297984 3.926322 -20.003476 -69.832093 -0.000004 -1.461303 0.000002 -33.263445 -1.326112 -6.241547 -0.648776 2.203845 4.804958 11.886203 25.485509 17.038954 -13.817812 3.526698 9.035152 0.000000 -0.000002 -0.000001 0.031054 -0.955118 -7.639843 0.267912 1.753015 -17.376963 0.057699 0.821085 -8.039276 -0.000001 -0.000001 0.000001 -0.072202 2.681447 -15.708021 0.268134 1.753734 -17.384343 0.299845 1.851924 -18.392158 -0.000000 0.000000 -0.000002 0.137097 3.644440 -21.183958 0.386919 2.095569 -20.920046 0.283307 1.801459 -17.873514 -0.000001 -0.000000 0.000001 0.923606 5.554470 -27.169360 0.268635 1.755343 -17.400778 0.241759 1.667198 -16.500808 0.000000 0.000001 0.000002 1.205577 15.360486 14.695089 13.114105 27.485615 58.849443 -0.000008 6.672327 -0.000011 -20.257091 -0.367623 6.703231 -1.880028 0.312982 -4.372129 12.241229 -28.941168 -16.247833 -15.617999 -3.407694 -12.657780 -0.000002 -0.000001 -0.000001 0.109238 1.223477 6.247440 0.191291 -1.322371 16.461229 0.035871 -0.577516 7.107835 0.000004 0.000001 0.000001 -0.196248 -2.024567 15.431252 0.207508 -1.376057 17.150105 0.232416 -1.454294 18.158691 -0.000004 -0.000003 -0.000003 -0.020691 -2.944514 20.577710 0.306387 -1.662899 20.877737 0.224089 -1.428670 17.827613 0.000001 0.000000 0.000003 0.693358 -4.828114 26.596519 0.211814 -1.389938 17.328496 0.190498 -1.319696 16.427095 -0.000000 -0.000002 0.000002 -10.194578 14.685687 11.568285 12.298487 1.602358 4.082618 0.669626 0.784834 -8.309101 -4.898581 0.000008 -0.000000 0.000000 0.000000 -0.000000 3.805271 -10.096632 1.696055 6.667835 -8.549348 -2.330859 -5.531755 -3.048281 5.031717 -7.240706 0.000015 0.000001 0.000000 -0.000000 0.000000 
